<?xml version="1.0" encoding="utf-8"?>
<!-- Generator: Adobe Illustrator 24.3.0, SVG Export Plug-In . SVG Version: 6.00 Build 0)  -->
<svg version="1.1" id="Layer_1" xmlns="http://www.w3.org/2000/svg" xmlns:xlink="http://www.w3.org/1999/xlink" x="0px" y="0px"
	 viewBox="0 0 200 200" enable-background="new 0 0 200 200" xml:space="preserve">
<path fill="#282828" d="M100.932,123.348c-12.1,0-21.9-9.8-21.9-21.9s9.8-22,21.9-22s21.9,9.9,21.9,22
	S113.032,123.348,100.932,123.348z M100.932,83.348c-10,0-18.1,8.1-18.1,18.1s8.1,18,18.1,18s18-8.1,18-18
	S110.832,83.348,100.932,83.348z"/>
<path fill="#282828" d="M90.232,147.248c-0.1,0-0.3,0-0.4,0c-7-1.6-13.6-4.8-19.3-9.3c-0.4-0.3-0.7-0.8-0.7-1.3s0.1-1,0.4-1.5
	l2.7-3.4c-3.7-3.2-6.8-7.1-9.1-11.4l-4,1.9c-1,0.5-2.2,0.1-2.7-0.9c-3.1-6.5-4.7-13.5-4.7-20.8c0-0.5,0.2-1,0.6-1.4
	c0.4-0.4,0.9-0.6,1.4-0.6h4.4c0.2-4.9,1.3-9.7,3.3-14.3l-4-1.9c-0.5-0.2-0.8-0.6-1-1.1c-0.2-0.5-0.1-1,0.1-1.5
	c3-6.5,7.6-12.3,13.2-16.8c0.8-0.7,2.1-0.6,2.8,0.3l2.8,3.4c4-2.9,8.4-5,13.2-6.4l-1-4.3c-0.1-0.5,0-1.1,0.3-1.5
	c0.3-0.4,0.7-0.8,1.2-0.9c6.9-1.6,14.4-1.6,21.3-0.1c1.1,0.2,1.7,1.3,1.5,2.4l-1,4.3c4.7,1.3,9.2,3.5,13.2,6.3l2.7-3.4
	c0.3-0.4,0.8-0.7,1.3-0.7c0.5-0.1,1,0.1,1.5,0.4c5.6,4.5,10.2,10.3,13.3,16.7c0.2,0.5,0.3,1,0.1,1.5c-0.2,0.5-0.5,0.9-1,1.1l-4,1.9
	c2,4.6,3.1,9.4,3.3,14.3l4.3-0.1c0.5,0,1,0.2,1.4,0.6c0.4,0.4,0.6,0.9,0.6,1.4c0,7.5-1.6,14.5-4.7,21c-0.2,0.5-0.6,0.8-1.1,1
	s-1,0.1-1.5-0.1l-4-1.9c-2.3,4.3-5.4,8.2-9.1,11.5l2.7,3.4c0.7,0.9,0.5,2.1-0.3,2.8c-5.6,4.5-12.3,7.7-19.2,9.3
	c-1.1,0.3-2.1-0.4-2.4-1.5l-1-4.3c-4.9,0.9-9.7,0.9-14.6,0l-1,4.3c-0.1,0.5-0.4,1-0.9,1.2
	C90.932,147.148,90.632,147.248,90.232,147.248z M74.632,136.048c4.3,3.1,9.1,5.4,14.1,6.8l0.9-4.2c0.1-0.5,0.4-1,0.9-1.2
	c0.4-0.3,1-0.4,1.5-0.3c5.6,1.3,11.1,1.3,16.8,0c0.5-0.1,1.1,0,1.5,0.3s0.8,0.7,0.9,1.2l1,4.2c5.1-1.4,9.9-3.7,14.1-6.8l-2.7-3.4
	c-0.7-0.9-0.5-2.1,0.3-2.8c4.4-3.5,8-8,10.4-13.1c0.5-1,1.7-1.4,2.7-0.9l3.9,1.9c2.1-4.9,3.3-10.1,3.5-15.4l-4.3,0.1
	c-0.5,0-1-0.2-1.4-0.6c-0.4-0.4-0.6-0.9-0.6-1.4c0-5.7-1.3-11.2-3.8-16.4c-0.5-1-0.1-2.2,0.9-2.7l3.9-1.9c-2.5-4.6-5.9-8.8-9.8-12.2
	l-2.7,3.4c-0.7,0.9-1.9,1-2.8,0.3c-4.5-3.5-9.6-6-15.1-7.2c-1.1-0.2-1.7-1.3-1.5-2.4l0.9-4.2c-5.1-1-10.6-1-15.7,0l1,4.2
	c0.1,0.5,0,1.1-0.3,1.5c-0.3,0.4-0.7,0.8-1.2,0.9c-5.5,1.2-10.7,3.7-15.1,7.3c-0.9,0.7-2.1,0.6-2.8-0.3l-2.7-3.3
	c-3.9,3.5-7.3,7.7-9.8,12.3l3.9,1.9c1,0.5,1.4,1.7,0.9,2.6c-2.5,5.2-3.7,10.6-3.7,16.3c0,1.1-0.9,2.1-2,2.1l-4.2-0.2
	c0.2,5.3,1.4,10.4,3.5,15.3l3.9-1.9c0.5-0.2,1-0.3,1.5-0.1s0.9,0.5,1.1,1c2.5,5.1,6.1,9.6,10.5,13.1c0.4,0.3,0.7,0.8,0.7,1.3
	s-0.1,1-0.4,1.5L74.632,136.048z"/>
</svg>
